<svg width="190" height="102" viewBox="0 0 190 102" fill="none" xmlns="http://www.w3.org/2000/svg">
<path d="M74.7334 66.1263C73.3014 66.1263 72.0296 65.8741 70.918 65.3695C69.8252 64.8649 68.9679 64.0707 68.3462 62.9868C67.7433 61.8843 67.4418 60.436 67.4418 58.642V48.9713C67.4418 48.2612 67.0744 47.794 66.3396 47.5697L65.7178 47.4016V47.1212H73.5464V47.4016L72.7268 47.6258C72.0296 47.794 71.6811 48.2612 71.6811 49.0274V59.3708C71.6811 61.1088 72.0485 62.3982 72.7833 63.2391C73.5181 64.0614 74.5732 64.4725 75.9486 64.4725C77.3806 64.4725 78.511 64.0333 79.34 63.155C80.1879 62.2767 80.6118 61.034 80.6118 59.4269V49.1395C80.6118 48.7657 80.5459 48.4387 80.414 48.1584C80.301 47.8594 80.056 47.6632 79.6792 47.5697L78.9726 47.4016V47.1212H82.9293V47.4016L82.1662 47.5978C81.8083 47.6725 81.5727 47.8501 81.4597 48.1304C81.3466 48.4107 81.2901 48.7377 81.2901 49.1115V59.3708C81.2901 60.735 81.0169 61.931 80.4705 62.9588C79.9241 63.9679 79.1611 64.7528 78.1813 65.3134C77.2016 65.8554 76.0522 66.1263 74.7334 66.1263Z" fill="#1C1D20"/>
<path d="M83.2159 65.6218V65.3415L83.6116 65.2293C84.271 65.0425 84.6007 64.5846 84.6007 63.8558V55.0821C84.6007 54.671 84.5348 54.372 84.4029 54.1851C84.271 53.9795 84.0167 53.8394 83.6398 53.7646L83.2159 53.6525V53.3722L88.0487 51.7464L88.3313 52.0267L88.5574 53.7086C89.2168 53.1292 89.9611 52.6527 90.7901 52.279C91.6191 51.9052 92.4387 51.7183 93.2489 51.7183C94.4924 51.7183 95.4439 52.0547 96.1033 52.7275C96.7816 53.4002 97.1208 54.428 97.1208 55.8109V63.8838C97.1208 64.6126 97.4787 65.0705 98.1947 65.2574L98.4491 65.3415V65.6218H91.7793V65.3415L92.1467 65.2293C92.8061 65.0238 93.1358 64.5659 93.1358 63.8558V54.9139C93.1358 53.7179 92.5329 53.1199 91.3271 53.1199C90.498 53.1199 89.5937 53.531 88.6139 54.3533V63.8838C88.6139 64.6126 88.9436 65.0705 89.6031 65.2574L89.8574 65.3415V65.6218H83.2159Z" fill="#1C1D20"/>
<path d="M102.946 50.2607C102.306 50.2607 101.759 50.0645 101.307 49.6721C100.874 49.261 100.657 48.747 100.657 48.1304C100.657 47.495 100.874 46.9811 101.307 46.5887C101.759 46.1962 102.306 46 102.946 46C103.587 46 104.124 46.1962 104.557 46.5887C104.991 46.9811 105.207 47.495 105.207 48.1304C105.207 48.747 104.991 49.261 104.557 49.6721C104.124 50.0645 103.587 50.2607 102.946 50.2607ZM99.6113 65.6218V65.3415L100.007 65.2293C100.384 65.1172 100.638 64.949 100.77 64.7248C100.921 64.5005 100.996 64.2015 100.996 63.8278V55.054C100.996 54.6616 100.921 54.372 100.77 54.1851C100.638 53.9795 100.384 53.8394 100.007 53.7646L99.6113 53.6805V53.4002L104.783 51.7464L105.066 52.0267L104.981 56.0071V63.8558C104.981 64.2296 105.047 64.5286 105.179 64.7528C105.33 64.9771 105.584 65.1452 105.942 65.2574L106.225 65.3415V65.6218H99.6113Z" fill="#1C1D20"/>
<path d="M114.485 66.0422C113.204 66.0422 112.035 65.7713 110.98 65.2293C109.944 64.6687 109.115 63.8652 108.493 62.8187C107.89 61.7535 107.589 60.4547 107.589 58.9223C107.589 57.4087 107.919 56.1192 108.578 55.054C109.256 53.9702 110.151 53.1479 111.263 52.5873C112.393 52.008 113.628 51.7183 114.965 51.7183C116.058 51.7183 116.981 51.8959 117.735 52.2509C118.489 52.606 119.063 53.0732 119.459 53.6525C119.855 54.2131 120.052 54.8018 120.052 55.4184C120.052 55.9417 119.892 56.3528 119.572 56.6518C119.252 56.9321 118.837 57.0723 118.328 57.0723C117.782 57.0723 117.339 56.8761 117 56.4836C116.661 56.0912 116.463 55.5773 116.407 54.9419C116.388 54.5308 116.397 54.1851 116.435 53.9048C116.473 53.6058 116.473 53.3068 116.435 53.0078C116.36 52.6901 116.237 52.4845 116.067 52.3911C115.917 52.279 115.7 52.2229 115.417 52.2229C114.268 52.2229 113.373 52.7181 112.733 53.7086C112.111 54.699 111.8 56.2781 111.8 58.4458C111.8 60.3332 112.148 61.7815 112.846 62.7906C113.562 63.7811 114.654 64.2763 116.124 64.2763C117.01 64.2763 117.726 64.1174 118.272 63.7997C118.818 63.4821 119.346 63.0055 119.855 62.3702L120.137 62.5944C119.666 63.697 118.941 64.5472 117.961 65.1452C116.981 65.7432 115.823 66.0422 114.485 66.0422Z" fill="#1C1D20"/>
<path d="M128.426 66.0422C126.994 66.0422 125.75 65.7526 124.695 65.1733C123.64 64.5753 122.821 63.7343 122.237 62.6505C121.671 61.5666 121.389 60.2959 121.389 58.8382C121.389 57.3806 121.69 56.1192 122.293 55.054C122.915 53.9889 123.753 53.1666 124.808 52.5873C125.882 52.008 127.088 51.7183 128.426 51.7183C129.764 51.7183 130.96 52.008 132.015 52.5873C133.07 53.1479 133.899 53.9608 134.502 55.026C135.124 56.0912 135.435 57.3619 135.435 58.8382C135.435 60.3145 135.143 61.5946 134.559 62.6785C133.993 63.7437 133.183 64.5753 132.128 65.1733C131.092 65.7526 129.858 66.0422 128.426 66.0422ZM128.426 65.4816C129.085 65.4816 129.613 65.2947 130.009 64.921C130.404 64.5472 130.687 63.8838 130.856 62.9308C131.045 61.9777 131.139 60.6322 131.139 58.8943C131.139 57.1377 131.045 55.7829 130.856 54.8298C130.687 53.8767 130.404 53.2133 130.009 52.8396C129.613 52.4658 129.085 52.279 128.426 52.279C127.766 52.279 127.229 52.4658 126.815 52.8396C126.419 53.2133 126.127 53.8767 125.939 54.8298C125.769 55.7829 125.684 57.1377 125.684 58.8943C125.684 60.6322 125.769 61.9777 125.939 62.9308C126.127 63.8838 126.419 64.5472 126.815 64.921C127.229 65.2947 127.766 65.4816 128.426 65.4816Z" fill="#1C1D20"/>
<path d="M136.676 65.6218V65.3415L137.1 65.2293C137.477 65.1172 137.731 64.949 137.863 64.7248C138.014 64.5005 138.089 64.2109 138.089 63.8558V55.0821C138.089 54.671 138.014 54.372 137.863 54.1851C137.731 53.9795 137.477 53.8394 137.1 53.7646L136.676 53.6525V53.3722L141.537 51.7464L141.82 52.0267L142.074 54.4374V54.6616C142.338 54.1384 142.677 53.6618 143.092 53.232C143.525 52.7835 143.996 52.4191 144.505 52.1388C145.032 51.8585 145.55 51.7183 146.059 51.7183C146.775 51.7183 147.321 51.9146 147.698 52.307C148.075 52.6994 148.264 53.1946 148.264 53.7926C148.264 54.428 148.075 54.9232 147.698 55.2783C147.34 55.6147 146.907 55.7829 146.398 55.7829C145.607 55.7829 144.91 55.3904 144.307 54.6055L144.25 54.5495C144.062 54.2879 143.845 54.1477 143.6 54.129C143.355 54.0916 143.129 54.2038 142.922 54.4654C142.734 54.6336 142.573 54.8391 142.442 55.0821C142.329 55.3063 142.215 55.5679 142.102 55.8669V63.6876C142.102 64.4351 142.432 64.9023 143.092 65.0892L143.996 65.3415V65.6218H136.676Z" fill="#1C1D20"/>
<path d="M149.151 65.6218V65.3415L149.547 65.2293C150.206 65.0425 150.536 64.5846 150.536 63.8558V55.0821C150.536 54.671 150.47 54.372 150.338 54.1851C150.206 53.9795 149.952 53.8394 149.575 53.7646L149.151 53.6525V53.3722L153.984 51.7464L154.267 52.0267L154.493 53.7086C155.152 53.1292 155.896 52.6527 156.725 52.279C157.554 51.9052 158.374 51.7183 159.184 51.7183C160.428 51.7183 161.379 52.0547 162.039 52.7275C162.717 53.4002 163.056 54.428 163.056 55.8109V63.8838C163.056 64.6126 163.414 65.0705 164.13 65.2574L164.384 65.3415V65.6218H157.714V65.3415L158.082 65.2293C158.741 65.0238 159.071 64.5659 159.071 63.8558V54.9139C159.071 53.7179 158.468 53.1199 157.262 53.1199C156.433 53.1199 155.529 53.531 154.549 54.3533V63.8838C154.549 64.6126 154.879 65.0705 155.538 65.2574L155.793 65.3415V65.6218H149.151Z" fill="#1C1D20"/>
<path d="M71.8224 93.6129L66.82 76.9344C66.6881 76.5046 66.5468 76.1963 66.3961 76.0094C66.2454 75.8038 65.9816 75.617 65.6048 75.4488L65.2656 75.3086V75.0283H72.755V75.3086L72.1615 75.5329C71.7282 75.7011 71.4361 75.9066 71.2854 76.1496C71.1347 76.3925 71.1253 76.7289 71.2571 77.1587L74.3377 88.8196L77.6726 79.0368L77.0226 77.0466C76.8907 76.6541 76.7682 76.3551 76.6552 76.1496C76.5421 75.944 76.3537 75.7758 76.0899 75.645L75.4682 75.3086V75.0283H82.5619V75.3086L81.6858 75.645C81.309 75.7758 81.0923 75.972 81.0358 76.2336C80.9981 76.4766 81.0452 76.7943 81.1771 77.1867L84.7663 89.0999L88.1578 77.411C88.2896 76.9625 88.3368 76.57 88.2991 76.2336C88.2614 75.8973 88.0259 75.6543 87.5925 75.5048L86.999 75.3086V75.0283H90.9274V75.3086L90.1926 75.5889C89.8158 75.7197 89.552 75.9253 89.4013 76.2056C89.2506 76.4859 89.1187 76.8316 89.0056 77.2428L84.3141 93.6129H82.3641L78.1248 80.4383L73.7725 93.6129H71.8224Z" fill="#1C1D20"/>
<path d="M94.2524 78.1678C93.6118 78.1678 93.0654 77.9716 92.6132 77.5791C92.1799 77.168 91.9632 76.6541 91.9632 76.0374C91.9632 75.4021 92.1799 74.8882 92.6132 74.4957C93.0654 74.1033 93.6118 73.9071 94.2524 73.9071C94.893 73.9071 95.43 74.1033 95.8633 74.4957C96.2967 74.8882 96.5133 75.4021 96.5133 76.0374C96.5133 76.6541 96.2967 77.168 95.8633 77.5791C95.43 77.9716 94.893 78.1678 94.2524 78.1678ZM90.9175 93.5288V93.2485L91.3132 93.1364C91.69 93.0243 91.9443 92.8561 92.0762 92.6318C92.227 92.4076 92.3023 92.1086 92.3023 91.7348V82.9611C92.3023 82.5687 92.227 82.279 92.0762 82.0921C91.9443 81.8866 91.69 81.7464 91.3132 81.6717L90.9175 81.5876V81.3073L96.0894 79.6534L96.372 79.9338L96.2873 83.9142V91.7629C96.2873 92.1366 96.3532 92.4356 96.4851 92.6599C96.6358 92.8841 96.8902 93.0523 97.2482 93.1644L97.5308 93.2485V93.5288H90.9175Z" fill="#1C1D20"/>
<path d="M104.152 93.9493C102.946 93.9493 102.004 93.6503 101.326 93.0523C100.666 92.4543 100.336 91.5013 100.336 90.1931V80.6065H98.3864V80.3262L99.0646 80.2141C99.6487 80.0832 100.148 79.8964 100.563 79.6534C100.996 79.4105 101.42 79.0835 101.834 78.6724L104.152 76.1215H104.434L104.35 80.0459H107.515V80.6065H104.321V90.6977C104.321 91.3518 104.463 91.847 104.745 92.1833C105.047 92.5197 105.424 92.6879 105.876 92.6879C106.271 92.6879 106.62 92.5945 106.921 92.4076C107.223 92.202 107.524 91.9311 107.826 91.5947L108.108 91.875C107.732 92.5104 107.213 93.0149 106.554 93.3887C105.895 93.7624 105.094 93.9493 104.152 93.9493Z" fill="#1C1D20"/>
<path d="M108.994 93.5288V93.2485L109.39 93.1364C110.049 92.9495 110.379 92.4917 110.379 91.7629V82.9891C110.379 82.578 110.313 82.279 110.181 82.0921C110.049 81.8866 109.795 81.7464 109.418 81.6717L108.994 81.5596V81.2792L113.827 79.6534L114.109 79.9338L114.335 81.6156C114.995 81.0363 115.739 80.5598 116.568 80.186C117.397 79.8123 118.217 79.6254 119.027 79.6254C120.27 79.6254 121.222 79.9618 121.881 80.6345C122.56 81.3073 122.899 82.3351 122.899 83.718V91.7909C122.899 92.5197 123.257 92.9776 123.973 93.1644L124.227 93.2485V93.5288H117.557V93.2485L117.925 93.1364C118.584 92.9308 118.914 92.473 118.914 91.7629V82.821C118.914 81.625 118.311 81.027 117.105 81.027C116.276 81.027 115.372 81.4381 114.392 82.2603V91.7909C114.392 92.5197 114.722 92.9776 115.381 93.1644L115.635 93.2485V93.5288H108.994Z" fill="#1C1D20"/>
<path d="M132.426 79.6254C133.651 79.6254 134.697 79.8777 135.564 80.3823C136.43 80.8681 137.09 81.5409 137.542 82.4005C138.013 83.2414 138.248 84.2038 138.248 85.2877C138.248 85.4933 138.239 85.7082 138.22 85.9324C138.201 86.138 138.164 86.3248 138.107 86.493H129.685C129.704 88.5113 130.062 89.9689 130.759 90.8659C131.475 91.7442 132.53 92.1833 133.924 92.1833C134.866 92.1833 135.63 92.0338 136.214 91.7348C136.798 91.4358 137.344 90.9967 137.853 90.4174L138.135 90.6697C137.551 91.6975 136.769 92.501 135.79 93.0803C134.829 93.6596 133.67 93.9493 132.313 93.9493C130.976 93.9493 129.789 93.669 128.752 93.1084C127.716 92.5291 126.906 91.7068 126.322 90.6416C125.738 89.5765 125.446 88.3057 125.446 86.8294C125.446 85.297 125.785 83.9983 126.463 82.9331C127.142 81.8492 128.008 81.027 129.063 80.4663C130.137 79.9057 131.258 79.6254 132.426 79.6254ZM132.342 80.186C131.795 80.186 131.324 80.3542 130.929 80.6906C130.552 81.0083 130.25 81.5876 130.024 82.4285C129.817 83.2508 129.704 84.4187 129.685 85.9324H134.518C134.706 83.8955 134.631 82.4285 134.292 81.5315C133.953 80.6345 133.303 80.186 132.342 80.186Z" fill="#1C1D20"/>
<path d="M144.546 93.9493C143.623 93.9493 142.794 93.8372 142.059 93.6129C141.324 93.4074 140.646 93.1457 140.024 92.8281L140.053 89.4924H140.335L141.296 91.1742C141.711 91.9217 142.163 92.4823 142.653 92.8561C143.161 93.2111 143.802 93.3887 144.574 93.3887C145.479 93.3887 146.204 93.1925 146.751 92.8C147.316 92.3889 147.598 91.847 147.598 91.1742C147.598 90.5575 147.401 90.053 147.005 89.6605C146.609 89.2681 145.875 88.9131 144.801 88.5954L143.614 88.231C142.464 87.8946 141.56 87.3713 140.9 86.6612C140.241 85.9511 139.911 85.0821 139.911 84.0543C139.911 82.821 140.401 81.7745 141.381 80.9148C142.361 80.0552 143.764 79.6254 145.592 79.6254C146.327 79.6254 147.014 79.7095 147.655 79.8777C148.314 80.0272 148.946 80.2608 149.549 80.5785L149.379 83.6058H149.096L148.107 81.8679C147.749 81.2512 147.391 80.8214 147.033 80.5785C146.694 80.3168 146.176 80.186 145.479 80.186C144.838 80.186 144.235 80.3636 143.67 80.7186C143.105 81.0737 142.822 81.5782 142.822 82.2323C142.822 82.8677 143.058 83.3722 143.529 83.746C144.019 84.1197 144.735 84.4655 145.677 84.7831L146.948 85.1475C148.305 85.5587 149.275 86.1286 149.859 86.8574C150.444 87.5676 150.736 88.4272 150.736 89.4363C150.736 90.8005 150.189 91.8937 149.096 92.7159C148.022 93.5382 146.506 93.9493 144.546 93.9493Z" fill="#1C1D20"/>
<path d="M156.856 93.9493C155.932 93.9493 155.103 93.8372 154.369 93.6129C153.634 93.4074 152.955 93.1457 152.334 92.8281L152.362 89.4924H152.645L153.605 91.1742C154.02 91.9217 154.472 92.4823 154.962 92.8561C155.471 93.2111 156.111 93.3887 156.884 93.3887C157.788 93.3887 158.514 93.1925 159.06 92.8C159.625 92.3889 159.908 91.847 159.908 91.1742C159.908 90.5575 159.71 90.053 159.314 89.6605C158.919 89.2681 158.184 88.9131 157.11 88.5954L155.923 88.231C154.774 87.8946 153.869 87.3713 153.21 86.6612C152.55 85.9511 152.221 85.0821 152.221 84.0543C152.221 82.821 152.711 81.7745 153.69 80.9148C154.67 80.0552 156.074 79.6254 157.901 79.6254C158.636 79.6254 159.324 79.7095 159.964 79.8777C160.624 80.0272 161.255 80.2608 161.858 80.5785L161.688 83.6058H161.406L160.417 81.8679C160.059 81.2512 159.701 80.8214 159.343 80.5785C159.003 80.3168 158.485 80.186 157.788 80.186C157.148 80.186 156.545 80.3636 155.979 80.7186C155.414 81.0737 155.132 81.5782 155.132 82.2323C155.132 82.8677 155.367 83.3722 155.838 83.746C156.328 84.1197 157.044 84.4655 157.986 84.7831L159.258 85.1475C160.614 85.5587 161.585 86.1286 162.169 86.8574C162.753 87.5676 163.045 88.4272 163.045 89.4363C163.045 90.8005 162.499 91.8937 161.406 92.7159C160.332 93.5382 158.815 93.9493 156.856 93.9493Z" fill="#1C1D20"/>
<path d="M171.369 79.6254C172.594 79.6254 173.64 79.8777 174.506 80.3823C175.373 80.8681 176.033 81.5409 176.485 82.4005C176.956 83.2414 177.191 84.2038 177.191 85.2877C177.191 85.4933 177.182 85.7082 177.163 85.9324C177.144 86.138 177.107 86.3248 177.05 86.493H168.628C168.647 88.5113 169.005 89.9689 169.702 90.8659C170.418 91.7442 171.473 92.1833 172.867 92.1833C173.809 92.1833 174.572 92.0338 175.156 91.7348C175.741 91.4358 176.287 90.9967 176.796 90.4174L177.078 90.6697C176.494 91.6975 175.712 92.501 174.733 93.0803C173.772 93.6596 172.613 93.9493 171.256 93.9493C169.919 93.9493 168.732 93.669 167.695 93.1084C166.659 92.5291 165.849 91.7068 165.265 90.6416C164.681 89.5765 164.389 88.3057 164.389 86.8294C164.389 85.297 164.728 83.9983 165.406 82.9331C166.084 81.8492 166.951 81.027 168.006 80.4663C169.08 79.9057 170.201 79.6254 171.369 79.6254ZM171.285 80.186C170.738 80.186 170.267 80.3542 169.872 80.6906C169.495 81.0083 169.193 81.5876 168.967 82.4285C168.76 83.2508 168.647 84.4187 168.628 85.9324H173.461C173.649 83.8955 173.574 82.4285 173.235 81.5315C172.896 80.6345 172.246 80.186 171.285 80.186Z" fill="#1C1D20"/>
<path d="M183.489 93.9493C182.566 93.9493 181.737 93.8372 181.002 93.6129C180.267 93.4074 179.589 93.1457 178.967 92.8281L178.995 89.4924H179.278L180.239 91.1742C180.653 91.9217 181.106 92.4823 181.596 92.8561C182.104 93.2111 182.745 93.3887 183.517 93.3887C184.422 93.3887 185.147 93.1925 185.694 92.8C186.259 92.3889 186.541 91.847 186.541 91.1742C186.541 90.5575 186.344 90.053 185.948 89.6605C185.552 89.2681 184.817 88.9131 183.743 88.5954L182.556 88.231C181.407 87.8946 180.503 87.3713 179.843 86.6612C179.184 85.9511 178.854 85.0821 178.854 84.0543C178.854 82.821 179.344 81.7745 180.324 80.9148C181.304 80.0552 182.707 79.6254 184.535 79.6254C185.27 79.6254 185.957 79.7095 186.598 79.8777C187.257 80.0272 187.889 80.2608 188.491 80.5785L188.322 83.6058H188.039L187.05 81.8679C186.692 81.2512 186.334 80.8214 185.976 80.5785C185.637 80.3168 185.119 80.186 184.422 80.186C183.781 80.186 183.178 80.3636 182.613 80.7186C182.048 81.0737 181.765 81.5782 181.765 82.2323C181.765 82.8677 182.001 83.3722 182.472 83.746C182.962 84.1197 183.678 84.4655 184.62 84.7831L185.891 85.1475C187.248 85.5587 188.218 86.1286 188.802 86.8574C189.386 87.5676 189.678 88.4272 189.678 89.4363C189.678 90.8005 189.132 91.8937 188.039 92.7159C186.965 93.5382 185.449 93.9493 183.489 93.9493Z" fill="#1C1D20"/>
<path d="M87 0L0 79.5338C2.9541 91.8365 17.6377 103.566 30.9312 101.828L87 0Z" fill="#683DC4"/>
<path d="M87 0L0 79.5338C2.9541 91.8365 17.6377 103.566 30.9312 101.828L87 0Z" fill="url(#paint0_linear)"/>
<mask id="mask0" mask-type="alpha" maskUnits="userSpaceOnUse" x="0" y="0" width="87" height="102">
<path d="M87 0L0 79.5338C2.9541 91.8365 17.6377 103.566 30.9312 101.828L87 0Z" fill="#683DC4"/>
</mask>
<g mask="url(#mask0)">
<g filter="url(#filter0_ddiiii)">
<path d="M55.9901 64.5126C55.9901 73.7892 48.4698 81.3094 39.193 81.3094C29.9163 81.3094 22.396 73.7892 22.396 64.5126C22.396 55.236 29.9163 47.7158 39.193 47.7158C48.4698 47.7158 55.9901 55.236 55.9901 64.5126Z" fill="white"/>
</g>
<g filter="url(#filter1_di)">
<path d="M44.3615 60.4209C44.3615 65.0592 40.6013 68.8193 35.963 68.8193C31.3246 68.8193 27.5645 65.0592 27.5645 60.4209C27.5645 55.7826 31.3246 52.0225 35.963 52.0225C40.6013 52.0225 44.3615 55.7826 44.3615 60.4209Z" fill="#362F24"/>
<path d="M44.3615 60.4209C44.3615 65.0592 40.6013 68.8193 35.963 68.8193C31.3246 68.8193 27.5645 65.0592 27.5645 60.4209C27.5645 55.7826 31.3246 52.0225 35.963 52.0225C40.6013 52.0225 44.3615 55.7826 44.3615 60.4209Z" fill="url(#paint1_linear)"/>
</g>
<path d="M40.0538 60.4216C40.0538 62.9192 38.0291 64.9439 35.5316 64.9439C33.034 64.9439 31.0093 62.9192 31.0093 60.4216C31.0093 57.9241 33.034 55.8994 35.5316 55.8994C38.0291 55.8994 40.0538 57.9241 40.0538 60.4216Z" fill="black"/>
<path d="M34.886 57.4069C34.886 58.7151 33.9219 59.7756 32.7326 59.7756C31.5432 59.7756 30.5791 58.7151 30.5791 57.4069C30.5791 56.0986 31.5432 55.0381 32.7326 55.0381C33.9219 55.0381 34.886 56.0986 34.886 57.4069Z" fill="white"/>
</g>
<defs>
<filter id="filter0_ddiiii" x="-1.604" y="11.7158" width="101.594" height="127.594" filterUnits="userSpaceOnUse" color-interpolation-filters="sRGB">
<feFlood flood-opacity="0" result="BackgroundImageFix"/>
<feColorMatrix in="SourceAlpha" type="matrix" values="0 0 0 0 0 0 0 0 0 0 0 0 0 0 0 0 0 0 127 0"/>
<feOffset dx="30" dy="44"/>
<feGaussianBlur stdDeviation="7"/>
<feColorMatrix type="matrix" values="0 0 0 0 0.460677 0 0 0 0 0.384115 0 0 0 0 0.520833 0 0 0 0.25 0"/>
<feBlend mode="normal" in2="BackgroundImageFix" result="effect1_dropShadow"/>
<feColorMatrix in="SourceAlpha" type="matrix" values="0 0 0 0 0 0 0 0 0 0 0 0 0 0 0 0 0 0 127 0"/>
<feOffset dx="10" dy="14"/>
<feGaussianBlur stdDeviation="17"/>
<feColorMatrix type="matrix" values="0 0 0 0 0.114569 0 0 0 0 0.0253472 0 0 0 0 0.304167 0 0 0 0.63 0"/>
<feBlend mode="normal" in2="effect1_dropShadow" result="effect2_dropShadow"/>
<feBlend mode="normal" in="SourceGraphic" in2="effect2_dropShadow" result="shape"/>
<feColorMatrix in="SourceAlpha" type="matrix" values="0 0 0 0 0 0 0 0 0 0 0 0 0 0 0 0 0 0 127 0" result="hardAlpha"/>
<feOffset dx="-24" dy="-36"/>
<feGaussianBlur stdDeviation="32"/>
<feComposite in2="hardAlpha" operator="arithmetic" k2="-1" k3="1"/>
<feColorMatrix type="matrix" values="0 0 0 0 0.145833 0 0 0 0 0.2025 0 0 0 0 0.5 0 0 0 0.07 0"/>
<feBlend mode="normal" in2="shape" result="effect3_innerShadow"/>
<feColorMatrix in="SourceAlpha" type="matrix" values="0 0 0 0 0 0 0 0 0 0 0 0 0 0 0 0 0 0 127 0" result="hardAlpha"/>
<feOffset dy="-16"/>
<feGaussianBlur stdDeviation="7"/>
<feComposite in2="hardAlpha" operator="arithmetic" k2="-1" k3="1"/>
<feColorMatrix type="matrix" values="0 0 0 0 0.0546875 0 0 0 0 0.161875 0 0 0 0 0.4375 0 0 0 0.21 0"/>
<feBlend mode="normal" in2="effect3_innerShadow" result="effect4_innerShadow"/>
<feColorMatrix in="SourceAlpha" type="matrix" values="0 0 0 0 0 0 0 0 0 0 0 0 0 0 0 0 0 0 127 0" result="hardAlpha"/>
<feOffset dx="-20" dy="-16"/>
<feGaussianBlur stdDeviation="7"/>
<feComposite in2="hardAlpha" operator="arithmetic" k2="-1" k3="1"/>
<feColorMatrix type="matrix" values="0 0 0 0 0.680062 0 0 0 0 0.304688 0 0 0 0 0.975 0 0 0 0.15 0"/>
<feBlend mode="normal" in2="effect4_innerShadow" result="effect5_innerShadow"/>
<feColorMatrix in="SourceAlpha" type="matrix" values="0 0 0 0 0 0 0 0 0 0 0 0 0 0 0 0 0 0 127 0" result="hardAlpha"/>
<feOffset dx="-8" dy="1"/>
<feGaussianBlur stdDeviation="4"/>
<feComposite in2="hardAlpha" operator="arithmetic" k2="-1" k3="1"/>
<feColorMatrix type="matrix" values="0 0 0 0 0.370742 0 0 0 0 0.85 0 0 0 0 0.145208 0 0 0 0.21 0"/>
<feBlend mode="normal" in2="effect5_innerShadow" result="effect6_innerShadow"/>
</filter>
<filter id="filter1_di" x="22.5645" y="46.0225" width="36.797" height="36.7968" filterUnits="userSpaceOnUse" color-interpolation-filters="sRGB">
<feFlood flood-opacity="0" result="BackgroundImageFix"/>
<feColorMatrix in="SourceAlpha" type="matrix" values="0 0 0 0 0 0 0 0 0 0 0 0 0 0 0 0 0 0 127 0"/>
<feOffset dx="5" dy="4"/>
<feGaussianBlur stdDeviation="5"/>
<feColorMatrix type="matrix" values="0 0 0 0 0 0 0 0 0 0 0 0 0 0 0 0 0 0 0.25 0"/>
<feBlend mode="normal" in2="BackgroundImageFix" result="effect1_dropShadow"/>
<feBlend mode="normal" in="SourceGraphic" in2="effect1_dropShadow" result="shape"/>
<feColorMatrix in="SourceAlpha" type="matrix" values="0 0 0 0 0 0 0 0 0 0 0 0 0 0 0 0 0 0 127 0" result="hardAlpha"/>
<feOffset dx="5" dy="6"/>
<feGaussianBlur stdDeviation="7"/>
<feComposite in2="hardAlpha" operator="arithmetic" k2="-1" k3="1"/>
<feColorMatrix type="matrix" values="0 0 0 0 0.595833 0 0 0 0 0.536747 0 0 0 0 0.422049 0 0 0 1 0"/>
<feBlend mode="normal" in2="shape" result="effect2_innerShadow"/>
</filter>
<linearGradient id="paint0_linear" x1="13.1361" y1="95.0658" x2="84.8263" y2="15.4464" gradientUnits="userSpaceOnUse">
<stop stop-color="#FB47FF"/>
<stop offset="0.140625" stop-color="#7536FC"/>
<stop offset="0.255208" stop-color="#215AEC"/>
<stop offset="0.40625" stop-color="#50F7C8"/>
<stop offset="0.59375" stop-color="#00EB86"/>
<stop offset="0.71875" stop-color="#FEDA00"/>
<stop offset="0.848958" stop-color="#FFC700"/>
<stop offset="1" stop-color="#FF3D00"/>
</linearGradient>
<linearGradient id="paint1_linear" x1="42.1264" y1="66.7197" x2="32.1025" y2="57.5084" gradientUnits="userSpaceOnUse">
<stop stop-color="#83765C"/>
<stop offset="1" stop-color="#5F523B" stop-opacity="0"/>
</linearGradient>
</defs>
</svg>
